<svg id="Слой_1" viewBox="0 0 50 50" xmlns="http://www.w3.org/2000/svg"><style>.st0{display:none}.st1,.st4{display:inline}.st4{fill:none}.st4,.st5,.st6,.st7{stroke:#000;stroke-width:3;stroke-linecap:round;stroke-miterlimit:10}.st5{fill:none}.st6,.st7{display:inline}.st7{display:none;fill:none}</style><g class="st0" id="поиск"><path d="M19.5 8.2c6.2 0 11.3 5.1 11.3 11.3s-5.1 11.3-11.3 11.3a11.3 11.3 0 1 1 0-22.6m0-3a14.3 14.3 0 1 0 0 28.6 14.3 14.3 0 0 0 0-28.6z"/><path fill="none" stroke="#000" stroke-width="3" stroke-miterlimit="10" d="M28.8 28.7l3.3 3.3"/><path fill="none" stroke="#000" stroke-width="5" stroke-linecap="round" stroke-miterlimit="10" d="M44.8 44.8L33 33"/></g><g class="st0" id="активы"><path class="st4" d="M46.3 13.9H3.7c-.3 0-.5-.2-.5-.5V6.6c0-.6.4-1 1-1h41.7c.6 0 1 .4 1 1v6.8c-.1.3-.3.5-.6.5zM42.5 44.4h-35c-.6 0-1-.4-1-1V13.9h37.1v29.5c-.1.5-.5 1-1.1 1z"/><path class="st4" d="M32.3 26.5H18.2a2.9 2.9 0 0 1 0-5.8h14.1c1.6 0 2.9 1.3 2.9 2.9a3 3 0 0 1-2.9 2.9z"/></g><g class="st0" id="заявки"><path class="st4" d="M11.6 41.3h-3c-.6 0-1-.4-1-1v-32c0-.6.4-1 1-1h3v34zM32.2 6.1H12.6c-.6 0-1 .4-1 1v35.8c0 .6.4 1 1 1h28.9c.6 0 1-.4 1-1V15a1 1 0 0 0-.4-.8l-9.2-7.8a1 1 0 0 0-.7-.3zM32.2 6.1v8.8M42.4 15H32.2"/><g class="st1"><path class="st5" d="M19 20.9h17M19 26h14.3M19 30.9h17M19 35.6h14.3"/></g></g><g class="st0" id="регистрация"><path class="st4" d="M38.5 32.6v10.7c0 .6-.4 1-.9 1H9.3c-.5 0-.9-.4-.9-1V6.6c0-.6.4-1 .9-1h28.3c.5 0 .9.4.9 1v10.5"/><path class="st6" d="M28.5 30V20c0-.2-.3-.4-.5-.2l-6.6 5c-.2.1-.2.4 0 .5l6.6 5c.3.1.5-.1.5-.3z"/><path class="st4" d="M28.5 25h17.1"/></g><g class="st0" id="оповещение"><path class="st4" d="M9.9 16.1h31.3v-4.6c0-.6-.4-1-1-1H4.4c-.6 0-1 .4-1 1v23.2c0 .6.4 1 1 1H9V17.1c-.1-.6.4-1 .9-1z"/><path class="st4" d="M46 42.8H9.9c-.6 0-1-.4-1-1V17.1c0-.6.4-1 1-1H46c.6 0 1 .4 1 1v24.7c0 .6-.4 1-1 1z"/><path class="st4" d="M46 42.8H9.9c-.6 0-1-.4-1-1V17.1c0-.6.4-1 1-1l15.3 14.6a4 4 0 0 0 5.5 0L46 16.1c.6 0 1 .4 1 1v24.7c0 .6-.4 1-1 1zM22.3 27.9L8.9 38.6M33.6 28.1L47 38.9"/></g><g class="st0" id="синхронизация"><path class="st6" d="M30.8 36.6l5.8 8.1c.1.2.5.2.5-.1l2.5-7.9c.1-.2-.1-.4-.3-.4l-8.3-.2c-.2 0-.3.3-.2.5zM18.7 12.6l-5.8-8.1c-.1-.2-.5-.2-.5.1l-2.5 7.9c-.1.2.1.4.3.4l8.3.2c.2 0 .4-.3.2-.5z"/><path class="st4" d="M39.4 36.5A18.8 18.8 0 0 1 6.5 20.4M10.1 12.6A18.8 18.8 0 0 1 43 28.7"/></g><path class="st5" d="M25.1 5.3c-11.5 0-20.9 8.1-20.9 18.2 0 5.8 3.1 11 8 14.3L7.5 45c-.2.2.1.5.3.4a30 30 0 0 0 12.5-4.3c1.5.3 3.1.5 4.8.5 11.5 0 20.9-8.1 20.9-18.2S36.7 5.3 25.1 5.3z" id="взаимодействие"/><g class="st0" id="SLA"><path class="st4" d="M43.4 44.4H6.6c-.6 0-1-.4-1-1V6.6c0-.6.4-1 1-1h36.8c.6 0 1 .4 1 1v36.8c0 .5-.5 1-1 1z"/><g class="st1"><path class="st5" d="M11.9 36.2h12.5"/><path class="st7" d="M30.7 34.8l2.5 2.7M38.1 32.5l-4.9 5"/><g><path class="st5" d="M11.9 26.2h12.5M30.7 24.8l2.5 2.7M38.1 22.5l-4.9 5"/></g><g><path class="st5" d="M11.9 16.2h12.5M30.7 14.8l2.5 2.7M38.1 12.5l-4.9 5"/></g></g></g><g class="st0" id="отчет"><path class="st4" d="M44.2 9.3H5.7c-.6 0-1-.4-1-1V4.9c0-.6.4-1 1-1h38.5c.6 0 1 .4 1 1v3.4c0 .6-.5 1-1 1zM42.2 38.4H7.7c-.6 0-1-.4-1-1V9.3h36.5v28.1c0 .6-.5 1-1 1zM25 42.8v-4.4"/><circle class="st4" cx="25" cy="45.6" r="2.2"/><g class="st1"><path class="st5" d="M28 18.8h10.7M28 23.9h10.7M28 29h10.7M17.8 23.4l-.6-5.2c0-.2-.1-.3-.3-.3a5.9 5.9 0 0 0-5.4 7.1 6 6 0 0 0 4.5 4.5c3.7.8 6.9-1.9 7.1-5.3 0-.2-.1-.3-.3-.3l-5-.5z"/></g></g></svg>