<?xml version="1.0" encoding="utf-8"?>
<!-- Generator: Adobe Illustrator 16.0.0, SVG Export Plug-In . SVG Version: 6.00 Build 0)  -->
<!DOCTYPE svg PUBLIC "-//W3C//DTD SVG 1.1//EN" "http://www.w3.org/Graphics/SVG/1.1/DTD/svg11.dtd">
<svg version="1.1" id="Layer_1" xmlns="http://www.w3.org/2000/svg" xmlns:xlink="http://www.w3.org/1999/xlink" x="0px" y="0px"
	 width="24px" height="24px" viewBox="0 0 24 24" enable-background="new 0 0 24 24" xml:space="preserve">
<g>
	<path d="M23.5,23.499c-0.275,0-0.5-0.224-0.5-0.5c0-4.691-3.518-7.492-9.406-7.492H13v5.188c0,0.191-0.111,0.368-0.284,0.451
		c-0.175,0.081-0.38,0.059-0.53-0.063l-12-9.687C0.069,11.302,0.001,11.161,0,11.011c-0.001-0.148,0.065-0.292,0.18-0.388l12-10.006
		c0.149-0.125,0.358-0.151,0.532-0.069C12.889,0.63,13,0.807,13,1.001v5.506h0.594C19.916,6.507,24,10.002,24,15.412v7.587
		C24,23.276,23.775,23.499,23.5,23.499z M1.288,11.001L12,19.647v-4.641c0-0.275,0.224-0.5,0.5-0.5h1.094
		c4.526,0,7.844,1.618,9.406,4.409v-3.504c0-4.802-3.691-7.905-9.406-7.905H12.5c-0.276,0-0.5-0.224-0.5-0.5V2.069L1.288,11.001z"/>
</g>
</svg>
